<?xml version='1.0' encoding='utf8'?>
<svg xmlns:xlink="http://www.w3.org/1999/xlink" xmlns="http://www.w3.org/2000/svg" version="1.1" baseProfile="full" width="800" height="600">
  <title>VFPt_helmholtz_coil</title>
  <desc>VFPt_helmholtz_coil
created with VectorFieldPlot 1.0
http://commons.wikimedia.org/wiki/User:Geek3/VectorFieldPlot

about: http://commons.wikimedia.org/wiki/Image:VFPt_helmholtz_coil.svg
rights: GNU Free Documentation license,
        Creative Commons Attribution ShareAlike license
  </desc>
  <defs>
    <path id="arrow1" stroke="none" fill="#000000" transform="scale(0.01)" d="M 0.3,0 L -2.2,2.25 L 3.8,0 L -2.2,-2.25 L 0.3,0 Z"/>
    <radialGradient id="white_spot" cx="0.65" cy="0.7" r="0.75">
      <stop stop-color="#ffffff" offset="0" stop-opacity="0.7"/>
      <stop stop-color="#ffffff" offset="0.1" stop-opacity="0.5"/>
      <stop stop-color="#ffffff" offset="0.6" stop-opacity="0"/>
      <stop stop-color="#000000" offset="0.6" stop-opacity="0"/>
      <stop stop-color="#000000" offset="0.75" stop-opacity="0.05"/>
      <stop stop-color="#000000" offset="0.85" stop-opacity="0.15"/>
      <stop stop-color="#000000" offset="1" stop-opacity="0.5"/>
    </radialGradient>
  </defs>
  <rect id="background" x="0" y="0" width="800" height="600" fill="#ffffff"/>
  <g id="image" transform="translate(400.0,300.0) scale(100.0,-100.0)">
    <g id="fieldlines" fill="none" stroke="#000000" stroke-width="0.02" stroke-linejoin="round" stroke-linecap="round">
      <g id="fieldline1">
        <path d="M -0.3719,-1.2553 L -0.3916,-1.2629 L -0.4125,-1.2682 L -0.4343,-1.2712 L -0.4566,-1.2717 L -0.4791,-1.2698 L -0.5015,-1.2653 L -0.5236,-1.2584 L -0.5449,-1.2491 L -0.5652,-1.2375 L -0.5842,-1.2238 L -0.6018,-1.2082 L -0.6176,-1.1908 L -0.6314,-1.1718 L -0.6431,-1.1515 L -0.6526,-1.1302 L -0.6597,-1.1082 L -0.6643,-1.0857 L -0.6665,-1.0630 L -0.6662,-1.0405 L -0.6634,-1.0184 L -0.6582,-0.9970 L -0.6508,-0.9766 L -0.6411,-0.9573 L -0.6295,-0.9396 L -0.6159,-0.9235 L -0.6007,-0.9092 L -0.5840,-0.8969 L -0.5661,-0.8868 L -0.5471,-0.8789 L -0.5273,-0.8733 L -0.5068,-0.8702 L -0.4860,-0.8695 L -0.4649,-0.8713 L -0.4439,-0.8756 L -0.4232,-0.8824 L -0.4028,-0.8917 L -0.3832,-0.9035 L -0.3644,-0.9177 L -0.3467,-0.9341 L -0.3304,-0.9528 L -0.3157,-0.9733 L -0.3030,-0.9954 L -0.2925,-1.0185 L -0.2844,-1.0422 L -0.2790,-1.0659 L -0.2761,-1.0891 L -0.2758,-1.1114 L -0.2780,-1.1327 L -0.2824,-1.1529 L -0.2891,-1.1718 L -0.2980,-1.1895 L -0.3090,-1.2059 L -0.3219,-1.2208 L -0.3368,-1.2341 L -0.3536,-1.2456 L -0.3719,-1.2553 Z"/>
        <g id="arrows1">
          <use xlink:href="#arrow1" transform="translate(-0.3730,-1.2524) rotate(-160.08) scale(2.0)"/>
        </g>
      </g>
      <g id="fieldline2">
        <path d="M 0.3719,-1.2553 L 0.3536,-1.2456 L 0.3368,-1.2341 L 0.3219,-1.2208 L 0.3090,-1.2059 L 0.2980,-1.1895 L 0.2891,-1.1718 L 0.2824,-1.1529 L 0.2780,-1.1327 L 0.2758,-1.1114 L 0.2761,-1.0891 L 0.2790,-1.0659 L 0.2844,-1.0422 L 0.2925,-1.0185 L 0.3030,-0.9954 L 0.3157,-0.9733 L 0.3304,-0.9527 L 0.3467,-0.9341 L 0.3644,-0.9176 L 0.3832,-0.9035 L 0.4028,-0.8917 L 0.4232,-0.8824 L 0.4439,-0.8756 L 0.4649,-0.8713 L 0.4860,-0.8695 L 0.5068,-0.8702 L 0.5273,-0.8733 L 0.5471,-0.8789 L 0.5661,-0.8868 L 0.5840,-0.8969 L 0.6007,-0.9092 L 0.6159,-0.9235 L 0.6295,-0.9396 L 0.6411,-0.9573 L 0.6508,-0.9766 L 0.6582,-0.9970 L 0.6634,-1.0184 L 0.6662,-1.0405 L 0.6665,-1.0630 L 0.6643,-1.0857 L 0.6597,-1.1082 L 0.6526,-1.1302 L 0.6431,-1.1515 L 0.6314,-1.1718 L 0.6176,-1.1908 L 0.6018,-1.2082 L 0.5842,-1.2238 L 0.5652,-1.2375 L 0.5449,-1.2491 L 0.5236,-1.2584 L 0.5015,-1.2653 L 0.4791,-1.2698 L 0.4566,-1.2717 L 0.4343,-1.2712 L 0.4125,-1.2682 L 0.3916,-1.2629 L 0.3719,-1.2553 Z"/>
        <g id="arrows2">
          <use xlink:href="#arrow1" transform="translate(0.3735,-1.2525) rotate(150.76) scale(2.0)"/>
        </g>
      </g>
      <g id="fieldline3">
        <path d="M 0.0000,-0.9802 L 0.0235,-0.9789 L 0.0475,-0.9750 L 0.0727,-0.9683 L 0.0998,-0.9583 L 0.1303,-0.9440 L 0.1692,-0.9226 L 0.2608,-0.8682 L 0.3006,-0.8471 L 0.3352,-0.8313 L 0.3674,-0.8194 L 0.3982,-0.8106 L 0.4280,-0.8047 L 0.4570,-0.8015 L 0.4854,-0.8008 L 0.5131,-0.8027 L 0.5402,-0.8071 L 0.5665,-0.8139 L 0.5920,-0.8231 L 0.6165,-0.8346 L 0.6400,-0.8485 L 0.6622,-0.8646 L 0.6831,-0.8828 L 0.7025,-0.9031 L 0.7202,-0.9254 L 0.7361,-0.9496 L 0.7502,-0.9755 L 0.7621,-1.0030 L 0.7719,-1.0319 L 0.7794,-1.0620 L 0.7846,-1.0933 L 0.7873,-1.1254 L 0.7875,-1.1582 L 0.7851,-1.1915 L 0.7802,-1.2250 L 0.7727,-1.2586 L 0.7626,-1.2921 L 0.7499,-1.3253 L 0.7347,-1.3579 L 0.7169,-1.3898 L 0.6968,-1.4208 L 0.6743,-1.4508 L 0.6495,-1.4796 L 0.6225,-1.5070 L 0.5933,-1.5330 L 0.5621,-1.5575 L 0.5287,-1.5803 L 0.4934,-1.6014 L 0.4560,-1.6207 L 0.4165,-1.6382 L 0.3748,-1.6538 L 0.3308,-1.6676 L 0.2842,-1.6794 L 0.2346,-1.6894 L 0.1814,-1.6973 L 0.1244,-1.7033 L 0.0634,-1.7069 L -0.0001,-1.7082 L -0.0636,-1.7069 L -0.1245,-1.7032 L -0.1816,-1.6973 L -0.2347,-1.6893 L -0.2844,-1.6794 L -0.3310,-1.6675 L -0.3750,-1.6538 L -0.4166,-1.6381 L -0.4561,-1.6206 L -0.4935,-1.6013 L -0.5288,-1.5802 L -0.5622,-1.5574 L -0.5934,-1.5329 L -0.6226,-1.5069 L -0.6496,-1.4795 L -0.6744,-1.4507 L -0.6969,-1.4207 L -0.7170,-1.3897 L -0.7347,-1.3578 L -0.7499,-1.3252 L -0.7626,-1.2920 L -0.7727,-1.2585 L -0.7802,-1.2249 L -0.7852,-1.1913 L -0.7875,-1.1581 L -0.7873,-1.1253 L -0.7846,-1.0932 L -0.7794,-1.0619 L -0.7719,-1.0318 L -0.7621,-1.0029 L -0.7501,-0.9754 L -0.7361,-0.9495 L -0.7201,-0.9254 L -0.7024,-0.9031 L -0.6830,-0.8828 L -0.6622,-0.8645 L -0.6399,-0.8484 L -0.6165,-0.8346 L -0.5919,-0.8230 L -0.5665,-0.8139 L -0.5401,-0.8071 L -0.5131,-0.8027 L -0.4853,-0.8008 L -0.4569,-0.8015 L -0.4279,-0.8047 L -0.3981,-0.8107 L -0.3673,-0.8195 L -0.3351,-0.8314 L -0.3004,-0.8471 L -0.2607,-0.8682 L -0.1693,-0.9226 L -0.1304,-0.9440 L -0.0998,-0.9583 L -0.0727,-0.9683 L -0.0476,-0.9750 L -0.0236,-0.9789 L 0.0000,-0.9802 Z"/>
        <g id="arrows3">
          <use xlink:href="#arrow1" transform="translate(-0.0002,-0.9777) rotate(3.52) scale(2.0)"/>
          <use xlink:href="#arrow1" transform="translate(0.0000,-1.7076) rotate(179.56) scale(2.0)"/>
        </g>
      </g>
      <g id="fieldline4">
        <path d="M 0.9284,-1.0302 L 0.9452,-1.0690 L 0.9601,-1.1097 L 0.9729,-1.1521 L 0.9835,-1.1962 L 0.9918,-1.2418 L 0.9977,-1.2887 L 1.0012,-1.3368 L 1.0023,-1.3860 L 1.0007,-1.4359 L 0.9966,-1.4865 L 0.9899,-1.5376 L 0.9807,-1.5889 L 0.9688,-1.6401 L 0.9543,-1.6912 L 0.9373,-1.7418 L 0.9179,-1.7918 L 0.8961,-1.8409 L 0.8719,-1.8889 L 0.8456,-1.9357 L 0.8171,-1.9811 L 0.7867,-2.0249 L 0.7543,-2.0670 L 0.7202,-2.1073 L 0.6844,-2.1456 L 0.6471,-2.1818 L 0.6084,-2.2159 L 0.5683,-2.2478 L 0.5270,-2.2774 L 0.4847,-2.3047 L 0.4414,-2.3297 L 0.3972,-2.3522 L 0.3522,-2.3722 L 0.3065,-2.3898 L 0.2602,-2.4050 L 0.2135,-2.4176 L 0.1663,-2.4277 L 0.1189,-2.4352 L 0.0712,-2.4403 L 0.0234,-2.4428 L -0.0245,-2.4428 L -0.0723,-2.4402 L -0.1199,-2.4351 L -0.1674,-2.4275 L -0.2145,-2.4173 L -0.2613,-2.4046 L -0.3075,-2.3895 L -0.3532,-2.3718 L -0.3982,-2.3517 L -0.4424,-2.3291 L -0.4857,-2.3041 L -0.5280,-2.2768 L -0.5692,-2.2471 L -0.6093,-2.2152 L -0.6480,-2.1810 L -0.6853,-2.1447 L -0.7210,-2.1064 L -0.7551,-2.0661 L -0.7874,-2.0239 L -0.8178,-1.9801 L -0.8462,-1.9347 L -0.8725,-1.8878 L -0.8966,-1.8398 L -0.9184,-1.7906 L -0.9378,-1.7406 L -0.9547,-1.6900 L -0.9691,-1.6390 L -0.9809,-1.5877 L -0.9901,-1.5364 L -0.9968,-1.4854 L -1.0008,-1.4348 L -1.0023,-1.3848 L -1.0012,-1.3357 L -0.9976,-1.2876 L -0.9916,-1.2407 L -0.9832,-1.1952 L -0.9726,-1.1512 L -0.9598,-1.1088 L -0.9449,-1.0682 L -0.9280,-1.0294 L -0.9092,-0.9926 L -0.8887,-0.9579 L -0.8665,-0.9253 L -0.8428,-0.8948 L -0.8176,-0.8667 L -0.7911,-0.8408 L -0.7634,-0.8172 L -0.7345,-0.7960 L -0.7046,-0.7771 L -0.6737,-0.7606 L -0.6419,-0.7465 L -0.6092,-0.7347 L -0.5756,-0.7253 L -0.5411,-0.7183 L -0.5055,-0.7138 L -0.4688,-0.7116 L -0.4304,-0.7120 L -0.3898,-0.7150 L -0.3455,-0.7210 L -0.2941,-0.7307 L -0.1556,-0.7630 L -0.1052,-0.7728 L -0.0628,-0.7786 L -0.0238,-0.7815 L 0.0143,-0.7818 L 0.0529,-0.7796 L 0.0943,-0.7745 L 0.1417,-0.7659 L 0.2129,-0.7496 L 0.2957,-0.7304 L 0.3467,-0.7208 L 0.3908,-0.7149 L 0.4313,-0.7120 L 0.4696,-0.7116 L 0.5064,-0.7138 L 0.5419,-0.7185 L 0.5764,-0.7255 L 0.6100,-0.7349 L 0.6426,-0.7467 L 0.6744,-0.7609 L 0.7053,-0.7775 L 0.7352,-0.7964 L 0.7640,-0.8177 L 0.7917,-0.8413 L 0.8182,-0.8673 L 0.8433,-0.8955 L 0.8670,-0.9260 L 0.8892,-0.9586 L 0.9097,-0.9934 L 0.9284,-1.0302 Z"/>
        <g id="arrows4">
          <use xlink:href="#arrow1" transform="translate(0.9274,-1.0307) rotate(-65.80) scale(2.0)"/>
          <use xlink:href="#arrow1" transform="translate(-0.0517,-2.4408) rotate(175.70) scale(2.0)"/>
          <use xlink:href="#arrow1" transform="translate(-0.8764,-0.9409) rotate(54.18) scale(2.0)"/>
        </g>
      </g>
      <g id="fieldline5">
        <path d="M -1.1021,-3.0100 L -1.1376,-2.9563 L -1.1714,-2.9008 L -1.2032,-2.8435 L -1.2330,-2.7844 L -1.2608,-2.7237 L -1.2865,-2.6615 L -1.3101,-2.5979 L -1.3314,-2.5330 L -1.3504,-2.4668 L -1.3671,-2.3995 L -1.3814,-2.3313 L -1.3932,-2.2623 L -1.4026,-2.1926 L -1.4095,-2.1225 L -1.4139,-2.0519 L -1.4157,-1.9813 L -1.4150,-1.9106 L -1.4117,-1.8402 L -1.4060,-1.7703 L -1.3977,-1.7010 L -1.3870,-1.6326 L -1.3739,-1.5652 L -1.3585,-1.4992 L -1.3408,-1.4347 L -1.3210,-1.3719 L -1.2992,-1.3110 L -1.2754,-1.2522 L -1.2499,-1.1956 L -1.2226,-1.1414 L -1.1938,-1.0896 L -1.1635,-1.0404 L -1.1318,-0.9938 L -1.0990,-0.9499 L -1.0650,-0.9087 L -1.0301,-0.8702 L -0.9942,-0.8344 L -0.9575,-0.8014 L -0.9200,-0.7710 L -0.8818,-0.7433 L -0.8429,-0.7182 L -0.8034,-0.6957 L -0.7633,-0.6757 L -0.7225,-0.6582 L -0.6810,-0.6432 L -0.6387,-0.6306 L -0.5955,-0.6204 L -0.5511,-0.6126 L -0.5051,-0.6071 L -0.4568,-0.6040 L -0.4050,-0.6032 L -0.3472,-0.6051 L -0.2746,-0.6105 L -0.1278,-0.6242 L -0.0602,-0.6284 L -0.0000,-0.6297 L 0.0602,-0.6284 L 0.1278,-0.6242 L 0.2746,-0.6105 L 0.3472,-0.6051 L 0.4050,-0.6032 L 0.4568,-0.6040 L 0.5051,-0.6071 L 0.5511,-0.6126 L 0.5955,-0.6204 L 0.6387,-0.6306 L 0.6810,-0.6432 L 0.7225,-0.6582 L 0.7633,-0.6757 L 0.8034,-0.6957 L 0.8429,-0.7182 L 0.8818,-0.7433 L 0.9200,-0.7710 L 0.9575,-0.8014 L 0.9942,-0.8344 L 1.0301,-0.8702 L 1.0650,-0.9087 L 1.0990,-0.9499 L 1.1318,-0.9938 L 1.1635,-1.0404 L 1.1938,-1.0896 L 1.2226,-1.1414 L 1.2499,-1.1956 L 1.2754,-1.2522 L 1.2992,-1.3110 L 1.3210,-1.3719 L 1.3408,-1.4347 L 1.3585,-1.4992 L 1.3739,-1.5652 L 1.3870,-1.6326 L 1.3977,-1.7010 L 1.4060,-1.7703 L 1.4117,-1.8402 L 1.4150,-1.9106 L 1.4157,-1.9813 L 1.4139,-2.0519 L 1.4095,-2.1225 L 1.4026,-2.1926 L 1.3932,-2.2623 L 1.3814,-2.3313 L 1.3671,-2.3995 L 1.3504,-2.4668 L 1.3314,-2.5330 L 1.3101,-2.5979 L 1.2865,-2.6615 L 1.2608,-2.7237 L 1.2330,-2.7844 L 1.2032,-2.8435 L 1.1714,-2.9008 L 1.1376,-2.9563 L 1.1021,-3.0100"/>
        <g id="arrows5">
          <use xlink:href="#arrow1" transform="translate(-1.4150,-1.9386) rotate(88.80) scale(2.0)"/>
          <use xlink:href="#arrow1" transform="translate(-0.0000,-0.6291) rotate(0.48) scale(2.0)"/>
          <use xlink:href="#arrow1" transform="translate(1.4152,-1.9386) rotate(-89.61) scale(2.0)"/>
        </g>
      </g>
      <g id="fieldline6">
        <path d="M -2.2768,-3.0100 L -2.2699,-2.9161 L -2.2603,-2.8221 L -2.2482,-2.7283 L -2.2336,-2.6346 L -2.2164,-2.5412 L -2.1967,-2.4482 L -2.1745,-2.3558 L -2.1498,-2.2641 L -2.1227,-2.1732 L -2.0933,-2.0833 L -2.0615,-1.9945 L -2.0275,-1.9071 L -1.9914,-1.8211 L -1.9531,-1.7367 L -1.9129,-1.6541 L -1.8709,-1.5735 L -1.8271,-1.4951 L -1.7816,-1.4190 L -1.7348,-1.3454 L -1.6866,-1.2745 L -1.6373,-1.2064 L -1.5870,-1.1412 L -1.5359,-1.0791 L -1.4841,-1.0202 L -1.4318,-0.9644 L -1.3791,-0.9120 L -1.3262,-0.8628 L -1.2731,-0.8170 L -1.2200,-0.7744 L -1.1668,-0.7351 L -1.1137,-0.6989 L -1.0608,-0.6659 L -1.0079,-0.6358 L -0.9550,-0.6087 L -0.9022,-0.5845 L -0.8493,-0.5630 L -0.7962,-0.5442 L -0.7428,-0.5279 L -0.6888,-0.5142 L -0.6339,-0.5028 L -0.5776,-0.4938 L -0.5191,-0.4871 L -0.4571,-0.4826 L -0.3891,-0.4804 L -0.3090,-0.4806 L -0.1678,-0.4848 L -0.0482,-0.4879 L 0.0482,-0.4879 L 0.1678,-0.4848 L 0.3090,-0.4806 L 0.3891,-0.4804 L 0.4571,-0.4826 L 0.5191,-0.4871 L 0.5776,-0.4938 L 0.6339,-0.5028 L 0.6888,-0.5142 L 0.7428,-0.5279 L 0.7962,-0.5442 L 0.8493,-0.5630 L 0.9022,-0.5845 L 0.9550,-0.6087 L 1.0079,-0.6358 L 1.0608,-0.6659 L 1.1137,-0.6989 L 1.1668,-0.7351 L 1.2200,-0.7744 L 1.2731,-0.8170 L 1.3262,-0.8628 L 1.3791,-0.9120 L 1.4318,-0.9644 L 1.4841,-1.0202 L 1.5359,-1.0791 L 1.5870,-1.1412 L 1.6373,-1.2064 L 1.6866,-1.2745 L 1.7348,-1.3454 L 1.7816,-1.4190 L 1.8271,-1.4951 L 1.8709,-1.5735 L 1.9129,-1.6541 L 1.9531,-1.7367 L 1.9914,-1.8211 L 2.0275,-1.9071 L 2.0615,-1.9945 L 2.0933,-2.0833 L 2.1227,-2.1732 L 2.1498,-2.2641 L 2.1745,-2.3558 L 2.1967,-2.4482 L 2.2164,-2.5412 L 2.2336,-2.6346 L 2.2482,-2.7283 L 2.2603,-2.8221 L 2.2699,-2.9161 L 2.2768,-3.0100"/>
        <g id="arrows6">
          <use xlink:href="#arrow1" transform="translate(-2.0897,-2.0740) rotate(70.57) scale(2.0)"/>
          <use xlink:href="#arrow1" transform="translate(-0.9394,-0.6019) rotate(24.53) scale(2.0)"/>
          <use xlink:href="#arrow1" transform="translate(0.9394,-0.6020) rotate(-25.79) scale(2.0)"/>
          <use xlink:href="#arrow1" transform="translate(2.0896,-2.0741) rotate(-71.17) scale(2.0)"/>
        </g>
      </g>
      <g id="fieldline7">
        <path d="M -3.6168,-3.0100 L -3.5538,-2.8928 L -3.4887,-2.7770 L -3.4217,-2.6628 L -3.3526,-2.5503 L -3.2818,-2.4396 L -3.2090,-2.3306 L -3.1346,-2.2236 L -3.0585,-2.1187 L -2.9809,-2.0158 L -2.9018,-1.9152 L -2.8213,-1.8170 L -2.7396,-1.7211 L -2.6568,-1.6279 L -2.5730,-1.5373 L -2.4885,-1.4496 L -2.4033,-1.3648 L -2.3176,-1.2831 L -2.2317,-1.2046 L -2.1457,-1.1294 L -2.0598,-1.0576 L -1.9744,-0.9894 L -1.8894,-0.9249 L -1.8053,-0.8640 L -1.7221,-0.8069 L -1.6400,-0.7535 L -1.5592,-0.7040 L -1.4797,-0.6582 L -1.4017,-0.6160 L -1.3251,-0.5775 L -1.2500,-0.5425 L -1.1763,-0.5108 L -1.1038,-0.4825 L -1.0325,-0.4572 L -0.9622,-0.4349 L -0.8925,-0.4155 L -0.8232,-0.3987 L -0.7538,-0.3845 L -0.6838,-0.3728 L -0.6122,-0.3634 L -0.5378,-0.3562 L -0.4584,-0.3512 L -0.3697,-0.3482 L -0.2551,-0.3475 L -0.0000,-0.3490 L 0.2551,-0.3475 L 0.3697,-0.3482 L 0.4584,-0.3512 L 0.5378,-0.3562 L 0.6122,-0.3634 L 0.6838,-0.3728 L 0.7538,-0.3845 L 0.8232,-0.3987 L 0.8925,-0.4155 L 0.9622,-0.4349 L 1.0325,-0.4572 L 1.1038,-0.4825 L 1.1763,-0.5108 L 1.2500,-0.5425 L 1.3251,-0.5775 L 1.4017,-0.6160 L 1.4797,-0.6582 L 1.5592,-0.7040 L 1.6400,-0.7535 L 1.7221,-0.8069 L 1.8053,-0.8640 L 1.8894,-0.9249 L 1.9744,-0.9894 L 2.0598,-1.0576 L 2.1457,-1.1294 L 2.2317,-1.2046 L 2.3176,-1.2831 L 2.4033,-1.3648 L 2.4885,-1.4496 L 2.5730,-1.5373 L 2.6568,-1.6279 L 2.7396,-1.7211 L 2.8213,-1.8170 L 2.9018,-1.9152 L 2.9809,-2.0158 L 3.0585,-2.1187 L 3.1346,-2.2236 L 3.2090,-2.3306 L 3.2818,-2.4396 L 3.3526,-2.5503 L 3.4217,-2.6628 L 3.4887,-2.7770 L 3.5538,-2.8928 L 3.6168,-3.0100"/>
        <g id="arrows7">
          <use xlink:href="#arrow1" transform="translate(-2.9765,-2.0105) rotate(52.06) scale(2.0)"/>
          <use xlink:href="#arrow1" transform="translate(-1.1676,-0.5077) rotate(21.72) scale(2.0)"/>
          <use xlink:href="#arrow1" transform="translate(1.1676,-0.5079) rotate(-22.43) scale(2.0)"/>
          <use xlink:href="#arrow1" transform="translate(2.9764,-2.0106) rotate(-52.49) scale(2.0)"/>
        </g>
      </g>
      <g id="fieldline8">
        <path d="M -4.0100,-1.5942 L -3.8521,-1.4943 L -3.6947,-1.3977 L -3.5380,-1.3046 L -3.3822,-1.2149 L -3.2275,-1.1288 L -3.0742,-1.0463 L -2.9225,-0.9676 L -2.7728,-0.8928 L -2.6253,-0.8219 L -2.4804,-0.7550 L -2.3384,-0.6922 L -2.1997,-0.6336 L -2.0645,-0.5793 L -1.9333,-0.5292 L -1.8062,-0.4834 L -1.6833,-0.4418 L -1.5648,-0.4043 L -1.4506,-0.3707 L -1.3406,-0.3410 L -1.2343,-0.3149 L -1.1315,-0.2923 L -1.0317,-0.2728 L -0.9340,-0.2563 L -0.8378,-0.2427 L -0.7416,-0.2316 L -0.6441,-0.2230 L -0.5424,-0.2166 L -0.4318,-0.2123 L -0.2998,-0.2101 L 0.0000,-0.2098 L 0.2998,-0.2101 L 0.4318,-0.2123 L 0.5424,-0.2166 L 0.6441,-0.2230 L 0.7416,-0.2316 L 0.8378,-0.2427 L 0.9340,-0.2563 L 1.0317,-0.2728 L 1.1315,-0.2923 L 1.2343,-0.3149 L 1.3406,-0.3410 L 1.4506,-0.3707 L 1.5648,-0.4043 L 1.6833,-0.4418 L 1.8062,-0.4834 L 1.9333,-0.5292 L 2.0645,-0.5793 L 2.1997,-0.6336 L 2.3384,-0.6922 L 2.4804,-0.7550 L 2.6253,-0.8219 L 2.7728,-0.8928 L 2.9225,-0.9676 L 3.0742,-1.0463 L 3.2275,-1.1288 L 3.3822,-1.2149 L 3.5380,-1.3046 L 3.6947,-1.3977 L 3.8521,-1.4943 L 4.0100,-1.5942"/>
        <g id="arrows8">
          <use xlink:href="#arrow1" transform="translate(-3.0800,-1.0497) rotate(27.76) scale(2.0)"/>
          <use xlink:href="#arrow1" transform="translate(-1.0736,-0.2810) rotate(10.89) scale(2.0)"/>
          <use xlink:href="#arrow1" transform="translate(1.0736,-0.2810) rotate(-11.03) scale(2.0)"/>
          <use xlink:href="#arrow1" transform="translate(3.0800,-1.0496) rotate(-28.09) scale(2.0)"/>
        </g>
      </g>
      <g id="fieldline9">
        <path d="M -4.0100,-0.4828 L -3.6961,-0.4276 L -3.3908,-0.3764 L -3.0951,-0.3291 L -2.8100,-0.2860 L -2.5369,-0.2472 L -2.2772,-0.2125 L -2.0319,-0.1822 L -1.8018,-0.1562 L -1.5872,-0.1343 L -1.3873,-0.1162 L -1.2006,-0.1017 L -1.0244,-0.0903 L -0.8552,-0.0819 L -0.6872,-0.0759 L -0.5103,-0.0721 L -0.2958,-0.0703 L 0.2958,-0.0703 L 0.5103,-0.0721 L 0.6872,-0.0759 L 0.8552,-0.0819 L 1.0244,-0.0903 L 1.2006,-0.1017 L 1.3873,-0.1162 L 1.5872,-0.1343 L 1.8018,-0.1562 L 2.0319,-0.1822 L 2.2772,-0.2125 L 2.5369,-0.2472 L 2.8100,-0.2860 L 3.0951,-0.3291 L 3.3908,-0.3764 L 3.6961,-0.4276 L 4.0100,-0.4828"/>
        <g id="arrows9">
          <use xlink:href="#arrow1" transform="translate(-3.0143,-0.3169) rotate(8.60) scale(2.0)"/>
          <use xlink:href="#arrow1" transform="translate(-1.0091,-0.0896) rotate(2.94) scale(2.0)"/>
          <use xlink:href="#arrow1" transform="translate(1.0091,-0.0897) rotate(-3.26) scale(2.0)"/>
          <use xlink:href="#arrow1" transform="translate(3.0143,-0.3169) rotate(-8.60) scale(2.0)"/>
        </g>
      </g>
      <g id="fieldline10">
        <path d="M -4.0100,0.4828 L -3.6961,0.4276 L -3.3908,0.3764 L -3.0951,0.3291 L -2.8100,0.2860 L -2.5369,0.2472 L -2.2772,0.2125 L -2.0319,0.1822 L -1.8018,0.1562 L -1.5872,0.1343 L -1.3873,0.1162 L -1.2006,0.1017 L -1.0244,0.0903 L -0.8552,0.0819 L -0.6872,0.0759 L -0.5103,0.0721 L -0.2958,0.0703 L 0.2958,0.0703 L 0.5103,0.0721 L 0.6872,0.0759 L 0.8552,0.0819 L 1.0244,0.0903 L 1.2006,0.1017 L 1.3873,0.1162 L 1.5872,0.1343 L 1.8018,0.1562 L 2.0319,0.1822 L 2.2772,0.2125 L 2.5369,0.2472 L 2.8100,0.2860 L 3.0951,0.3291 L 3.3908,0.3764 L 3.6961,0.4276 L 4.0100,0.4828"/>
        <g id="arrows10">
          <use xlink:href="#arrow1" transform="translate(-3.0143,0.3169) rotate(-8.60) scale(2.0)"/>
          <use xlink:href="#arrow1" transform="translate(-1.0091,0.0896) rotate(-2.94) scale(2.0)"/>
          <use xlink:href="#arrow1" transform="translate(1.0091,0.0897) rotate(3.26) scale(2.0)"/>
          <use xlink:href="#arrow1" transform="translate(3.0143,0.3169) rotate(8.60) scale(2.0)"/>
        </g>
      </g>
      <g id="fieldline11">
        <path d="M -4.0100,1.5942 L -3.8521,1.4943 L -3.6947,1.3977 L -3.5380,1.3046 L -3.3822,1.2149 L -3.2275,1.1288 L -3.0742,1.0463 L -2.9225,0.9676 L -2.7728,0.8928 L -2.6253,0.8219 L -2.4804,0.7550 L -2.3384,0.6922 L -2.1997,0.6336 L -2.0645,0.5793 L -1.9333,0.5292 L -1.8062,0.4834 L -1.6833,0.4418 L -1.5648,0.4043 L -1.4506,0.3707 L -1.3406,0.3410 L -1.2343,0.3149 L -1.1315,0.2923 L -1.0317,0.2728 L -0.9340,0.2563 L -0.8378,0.2427 L -0.7416,0.2316 L -0.6441,0.2230 L -0.5424,0.2166 L -0.4318,0.2123 L -0.2998,0.2101 L 0.0000,0.2098 L 0.2998,0.2101 L 0.4318,0.2123 L 0.5424,0.2166 L 0.6441,0.2230 L 0.7416,0.2316 L 0.8378,0.2427 L 0.9340,0.2563 L 1.0317,0.2728 L 1.1315,0.2923 L 1.2343,0.3149 L 1.3406,0.3410 L 1.4506,0.3707 L 1.5648,0.4043 L 1.6833,0.4418 L 1.8062,0.4834 L 1.9333,0.5292 L 2.0645,0.5793 L 2.1997,0.6336 L 2.3384,0.6922 L 2.4804,0.7550 L 2.6253,0.8219 L 2.7728,0.8928 L 2.9225,0.9676 L 3.0742,1.0463 L 3.2275,1.1288 L 3.3822,1.2149 L 3.5380,1.3046 L 3.6947,1.3977 L 3.8521,1.4943 L 4.0100,1.5942"/>
        <g id="arrows11">
          <use xlink:href="#arrow1" transform="translate(-3.0800,1.0497) rotate(-27.76) scale(2.0)"/>
          <use xlink:href="#arrow1" transform="translate(-1.0736,0.2810) rotate(-10.89) scale(2.0)"/>
          <use xlink:href="#arrow1" transform="translate(1.0736,0.2810) rotate(11.03) scale(2.0)"/>
          <use xlink:href="#arrow1" transform="translate(3.0800,1.0496) rotate(28.09) scale(2.0)"/>
        </g>
      </g>
      <g id="fieldline12">
        <path d="M -3.6168,3.0100 L -3.5538,2.8928 L -3.4887,2.7770 L -3.4217,2.6628 L -3.3526,2.5503 L -3.2818,2.4396 L -3.2090,2.3306 L -3.1346,2.2236 L -3.0585,2.1187 L -2.9809,2.0158 L -2.9018,1.9152 L -2.8213,1.8170 L -2.7396,1.7211 L -2.6568,1.6279 L -2.5730,1.5373 L -2.4885,1.4496 L -2.4033,1.3648 L -2.3176,1.2831 L -2.2317,1.2046 L -2.1457,1.1294 L -2.0598,1.0576 L -1.9744,0.9894 L -1.8894,0.9249 L -1.8053,0.8640 L -1.7221,0.8069 L -1.6400,0.7535 L -1.5592,0.7040 L -1.4797,0.6582 L -1.4017,0.6160 L -1.3251,0.5775 L -1.2500,0.5425 L -1.1763,0.5108 L -1.1038,0.4825 L -1.0325,0.4572 L -0.9622,0.4349 L -0.8925,0.4155 L -0.8232,0.3987 L -0.7538,0.3845 L -0.6838,0.3728 L -0.6122,0.3634 L -0.5378,0.3562 L -0.4584,0.3512 L -0.3697,0.3482 L -0.2551,0.3475 L -0.0000,0.3490 L 0.2551,0.3475 L 0.3697,0.3482 L 0.4584,0.3512 L 0.5378,0.3562 L 0.6122,0.3634 L 0.6838,0.3728 L 0.7538,0.3845 L 0.8232,0.3987 L 0.8925,0.4155 L 0.9622,0.4349 L 1.0325,0.4572 L 1.1038,0.4825 L 1.1763,0.5108 L 1.2500,0.5425 L 1.3251,0.5775 L 1.4017,0.6160 L 1.4797,0.6582 L 1.5592,0.7040 L 1.6400,0.7535 L 1.7221,0.8069 L 1.8053,0.8640 L 1.8894,0.9249 L 1.9744,0.9894 L 2.0598,1.0576 L 2.1457,1.1294 L 2.2317,1.2046 L 2.3176,1.2831 L 2.4033,1.3648 L 2.4885,1.4496 L 2.5730,1.5373 L 2.6568,1.6279 L 2.7396,1.7211 L 2.8213,1.8170 L 2.9018,1.9152 L 2.9809,2.0158 L 3.0585,2.1187 L 3.1346,2.2236 L 3.2090,2.3306 L 3.2818,2.4396 L 3.3526,2.5503 L 3.4217,2.6628 L 3.4887,2.7770 L 3.5538,2.8928 L 3.6168,3.0100"/>
        <g id="arrows12">
          <use xlink:href="#arrow1" transform="translate(-2.9765,2.0105) rotate(-52.06) scale(2.0)"/>
          <use xlink:href="#arrow1" transform="translate(-1.1676,0.5077) rotate(-21.72) scale(2.0)"/>
          <use xlink:href="#arrow1" transform="translate(1.1676,0.5079) rotate(22.43) scale(2.0)"/>
          <use xlink:href="#arrow1" transform="translate(2.9764,2.0106) rotate(52.49) scale(2.0)"/>
        </g>
      </g>
      <g id="fieldline13">
        <path d="M -2.2768,3.0100 L -2.2699,2.9161 L -2.2603,2.8221 L -2.2482,2.7283 L -2.2336,2.6346 L -2.2164,2.5412 L -2.1967,2.4482 L -2.1745,2.3558 L -2.1498,2.2641 L -2.1227,2.1732 L -2.0933,2.0833 L -2.0615,1.9945 L -2.0275,1.9071 L -1.9914,1.8211 L -1.9531,1.7367 L -1.9129,1.6541 L -1.8709,1.5735 L -1.8271,1.4951 L -1.7816,1.4190 L -1.7348,1.3454 L -1.6866,1.2745 L -1.6373,1.2064 L -1.5870,1.1412 L -1.5359,1.0791 L -1.4841,1.0202 L -1.4318,0.9644 L -1.3791,0.9120 L -1.3262,0.8628 L -1.2731,0.8170 L -1.2200,0.7744 L -1.1668,0.7351 L -1.1137,0.6989 L -1.0608,0.6659 L -1.0079,0.6358 L -0.9550,0.6087 L -0.9022,0.5845 L -0.8493,0.5630 L -0.7962,0.5442 L -0.7428,0.5279 L -0.6888,0.5142 L -0.6339,0.5028 L -0.5776,0.4938 L -0.5191,0.4871 L -0.4571,0.4826 L -0.3891,0.4804 L -0.3090,0.4806 L -0.1678,0.4848 L -0.0482,0.4879 L 0.0482,0.4879 L 0.1678,0.4848 L 0.3090,0.4806 L 0.3891,0.4804 L 0.4571,0.4826 L 0.5191,0.4871 L 0.5776,0.4938 L 0.6339,0.5028 L 0.6888,0.5142 L 0.7428,0.5279 L 0.7962,0.5442 L 0.8493,0.5630 L 0.9022,0.5845 L 0.9550,0.6087 L 1.0079,0.6358 L 1.0608,0.6659 L 1.1137,0.6989 L 1.1668,0.7351 L 1.2200,0.7744 L 1.2731,0.8170 L 1.3262,0.8628 L 1.3791,0.9120 L 1.4318,0.9644 L 1.4841,1.0202 L 1.5359,1.0791 L 1.5870,1.1412 L 1.6373,1.2064 L 1.6866,1.2745 L 1.7348,1.3454 L 1.7816,1.4190 L 1.8271,1.4951 L 1.8709,1.5735 L 1.9129,1.6541 L 1.9531,1.7367 L 1.9914,1.8211 L 2.0275,1.9071 L 2.0615,1.9945 L 2.0933,2.0833 L 2.1227,2.1732 L 2.1498,2.2641 L 2.1745,2.3558 L 2.1967,2.4482 L 2.2164,2.5412 L 2.2336,2.6346 L 2.2482,2.7283 L 2.2603,2.8221 L 2.2699,2.9161 L 2.2768,3.0100"/>
        <g id="arrows13">
          <use xlink:href="#arrow1" transform="translate(-2.0897,2.0740) rotate(-70.57) scale(2.0)"/>
          <use xlink:href="#arrow1" transform="translate(-0.9394,0.6019) rotate(-24.53) scale(2.0)"/>
          <use xlink:href="#arrow1" transform="translate(0.9394,0.6020) rotate(25.79) scale(2.0)"/>
          <use xlink:href="#arrow1" transform="translate(2.0896,2.0741) rotate(71.17) scale(2.0)"/>
        </g>
      </g>
      <g id="fieldline14">
        <path d="M -1.1021,3.0100 L -1.1376,2.9563 L -1.1714,2.9008 L -1.2032,2.8435 L -1.2330,2.7844 L -1.2608,2.7237 L -1.2865,2.6615 L -1.3101,2.5979 L -1.3314,2.5330 L -1.3504,2.4668 L -1.3671,2.3995 L -1.3814,2.3313 L -1.3932,2.2623 L -1.4026,2.1926 L -1.4095,2.1225 L -1.4139,2.0519 L -1.4157,1.9813 L -1.4150,1.9106 L -1.4117,1.8402 L -1.4060,1.7703 L -1.3977,1.7010 L -1.3870,1.6326 L -1.3739,1.5652 L -1.3585,1.4992 L -1.3408,1.4347 L -1.3210,1.3719 L -1.2992,1.3110 L -1.2754,1.2522 L -1.2499,1.1956 L -1.2226,1.1414 L -1.1938,1.0896 L -1.1635,1.0404 L -1.1318,0.9938 L -1.0990,0.9499 L -1.0650,0.9087 L -1.0301,0.8702 L -0.9942,0.8344 L -0.9575,0.8014 L -0.9200,0.7710 L -0.8818,0.7433 L -0.8429,0.7182 L -0.8034,0.6957 L -0.7633,0.6757 L -0.7225,0.6582 L -0.6810,0.6432 L -0.6387,0.6306 L -0.5955,0.6204 L -0.5511,0.6126 L -0.5051,0.6071 L -0.4568,0.6040 L -0.4050,0.6032 L -0.3472,0.6051 L -0.2746,0.6105 L -0.1278,0.6242 L -0.0602,0.6284 L 0.0000,0.6297 L 0.0602,0.6284 L 0.1278,0.6242 L 0.2746,0.6105 L 0.3472,0.6051 L 0.4050,0.6032 L 0.4568,0.6040 L 0.5051,0.6071 L 0.5511,0.6126 L 0.5955,0.6204 L 0.6387,0.6306 L 0.6810,0.6432 L 0.7225,0.6582 L 0.7633,0.6757 L 0.8034,0.6957 L 0.8429,0.7182 L 0.8818,0.7433 L 0.9200,0.7710 L 0.9575,0.8014 L 0.9942,0.8344 L 1.0301,0.8702 L 1.0650,0.9087 L 1.0990,0.9499 L 1.1318,0.9938 L 1.1635,1.0404 L 1.1938,1.0896 L 1.2226,1.1414 L 1.2499,1.1956 L 1.2754,1.2522 L 1.2992,1.3110 L 1.3210,1.3719 L 1.3408,1.4347 L 1.3585,1.4992 L 1.3739,1.5652 L 1.3870,1.6326 L 1.3977,1.7010 L 1.4060,1.7703 L 1.4117,1.8402 L 1.4150,1.9106 L 1.4157,1.9813 L 1.4139,2.0519 L 1.4095,2.1225 L 1.4026,2.1926 L 1.3932,2.2623 L 1.3814,2.3313 L 1.3671,2.3995 L 1.3504,2.4668 L 1.3314,2.5330 L 1.3101,2.5979 L 1.2865,2.6615 L 1.2608,2.7237 L 1.2330,2.7844 L 1.2032,2.8435 L 1.1714,2.9008 L 1.1376,2.9563 L 1.1021,3.0100"/>
        <g id="arrows14">
          <use xlink:href="#arrow1" transform="translate(-1.4150,1.9386) rotate(-88.80) scale(2.0)"/>
          <use xlink:href="#arrow1" transform="translate(-0.0000,0.6291) rotate(-0.48) scale(2.0)"/>
          <use xlink:href="#arrow1" transform="translate(1.4152,1.9386) rotate(89.61) scale(2.0)"/>
        </g>
      </g>
      <g id="fieldline15">
        <path d="M 0.9284,1.0302 L 0.9452,1.0690 L 0.9601,1.1097 L 0.9729,1.1521 L 0.9835,1.1962 L 0.9918,1.2418 L 0.9977,1.2887 L 1.0012,1.3368 L 1.0023,1.3860 L 1.0007,1.4359 L 0.9966,1.4865 L 0.9899,1.5376 L 0.9807,1.5889 L 0.9688,1.6401 L 0.9543,1.6912 L 0.9373,1.7418 L 0.9179,1.7918 L 0.8961,1.8409 L 0.8719,1.8889 L 0.8456,1.9357 L 0.8171,1.9811 L 0.7867,2.0249 L 0.7543,2.0670 L 0.7202,2.1073 L 0.6844,2.1456 L 0.6471,2.1818 L 0.6084,2.2159 L 0.5683,2.2478 L 0.5270,2.2774 L 0.4847,2.3047 L 0.4414,2.3297 L 0.3972,2.3522 L 0.3522,2.3722 L 0.3065,2.3898 L 0.2602,2.4050 L 0.2135,2.4176 L 0.1663,2.4277 L 0.1189,2.4352 L 0.0712,2.4403 L 0.0234,2.4428 L -0.0245,2.4428 L -0.0723,2.4402 L -0.1199,2.4351 L -0.1674,2.4275 L -0.2145,2.4173 L -0.2613,2.4046 L -0.3075,2.3895 L -0.3532,2.3718 L -0.3982,2.3517 L -0.4424,2.3291 L -0.4857,2.3041 L -0.5280,2.2768 L -0.5692,2.2471 L -0.6093,2.2152 L -0.6480,2.1810 L -0.6853,2.1447 L -0.7210,2.1064 L -0.7551,2.0661 L -0.7874,2.0239 L -0.8178,1.9801 L -0.8462,1.9347 L -0.8725,1.8878 L -0.8966,1.8398 L -0.9184,1.7906 L -0.9378,1.7406 L -0.9547,1.6900 L -0.9691,1.6390 L -0.9809,1.5877 L -0.9901,1.5364 L -0.9968,1.4854 L -1.0008,1.4348 L -1.0023,1.3848 L -1.0012,1.3357 L -0.9976,1.2876 L -0.9916,1.2407 L -0.9832,1.1952 L -0.9726,1.1512 L -0.9598,1.1088 L -0.9449,1.0682 L -0.9280,1.0294 L -0.9092,0.9926 L -0.8887,0.9579 L -0.8665,0.9253 L -0.8428,0.8948 L -0.8176,0.8667 L -0.7911,0.8408 L -0.7634,0.8172 L -0.7345,0.7960 L -0.7046,0.7771 L -0.6737,0.7606 L -0.6419,0.7465 L -0.6092,0.7347 L -0.5756,0.7253 L -0.5411,0.7183 L -0.5055,0.7138 L -0.4688,0.7116 L -0.4304,0.7120 L -0.3898,0.7150 L -0.3455,0.7210 L -0.2941,0.7307 L -0.1556,0.7630 L -0.1052,0.7728 L -0.0628,0.7786 L -0.0238,0.7815 L 0.0143,0.7818 L 0.0529,0.7796 L 0.0943,0.7745 L 0.1417,0.7659 L 0.2129,0.7496 L 0.2957,0.7304 L 0.3467,0.7208 L 0.3908,0.7149 L 0.4313,0.7120 L 0.4696,0.7116 L 0.5064,0.7138 L 0.5419,0.7185 L 0.5764,0.7255 L 0.6100,0.7349 L 0.6426,0.7467 L 0.6744,0.7609 L 0.7053,0.7775 L 0.7352,0.7964 L 0.7640,0.8177 L 0.7917,0.8413 L 0.8182,0.8673 L 0.8433,0.8955 L 0.8670,0.9260 L 0.8892,0.9586 L 0.9097,0.9934 L 0.9284,1.0302 Z"/>
        <g id="arrows15">
          <use xlink:href="#arrow1" transform="translate(0.9274,1.0307) rotate(65.80) scale(2.0)"/>
          <use xlink:href="#arrow1" transform="translate(-0.0517,2.4408) rotate(-175.70) scale(2.0)"/>
          <use xlink:href="#arrow1" transform="translate(-0.8764,0.9409) rotate(-54.18) scale(2.0)"/>
        </g>
      </g>
      <g id="fieldline16">
        <path d="M 0.0000,0.9802 L 0.0235,0.9789 L 0.0475,0.9750 L 0.0727,0.9683 L 0.0998,0.9583 L 0.1303,0.9440 L 0.1692,0.9226 L 0.2608,0.8682 L 0.3006,0.8471 L 0.3352,0.8313 L 0.3674,0.8194 L 0.3982,0.8106 L 0.4280,0.8047 L 0.4570,0.8015 L 0.4854,0.8008 L 0.5131,0.8027 L 0.5402,0.8071 L 0.5665,0.8139 L 0.5920,0.8231 L 0.6165,0.8346 L 0.6400,0.8485 L 0.6622,0.8646 L 0.6831,0.8828 L 0.7025,0.9031 L 0.7202,0.9254 L 0.7361,0.9496 L 0.7502,0.9755 L 0.7621,1.0030 L 0.7719,1.0319 L 0.7794,1.0620 L 0.7846,1.0933 L 0.7873,1.1254 L 0.7875,1.1582 L 0.7851,1.1915 L 0.7802,1.2250 L 0.7727,1.2586 L 0.7626,1.2921 L 0.7499,1.3253 L 0.7347,1.3579 L 0.7169,1.3898 L 0.6968,1.4208 L 0.6743,1.4508 L 0.6495,1.4796 L 0.6225,1.5070 L 0.5933,1.5330 L 0.5621,1.5575 L 0.5287,1.5803 L 0.4934,1.6014 L 0.4560,1.6207 L 0.4165,1.6382 L 0.3748,1.6538 L 0.3308,1.6676 L 0.2842,1.6794 L 0.2346,1.6894 L 0.1814,1.6973 L 0.1244,1.7033 L 0.0634,1.7069 L -0.0001,1.7082 L -0.0636,1.7069 L -0.1245,1.7032 L -0.1816,1.6973 L -0.2347,1.6893 L -0.2844,1.6794 L -0.3310,1.6675 L -0.3750,1.6538 L -0.4166,1.6381 L -0.4561,1.6206 L -0.4935,1.6013 L -0.5288,1.5802 L -0.5622,1.5574 L -0.5934,1.5329 L -0.6226,1.5069 L -0.6496,1.4795 L -0.6744,1.4507 L -0.6969,1.4207 L -0.7170,1.3897 L -0.7347,1.3578 L -0.7499,1.3252 L -0.7626,1.2920 L -0.7727,1.2585 L -0.7802,1.2249 L -0.7852,1.1913 L -0.7875,1.1581 L -0.7873,1.1253 L -0.7846,1.0932 L -0.7794,1.0619 L -0.7719,1.0318 L -0.7621,1.0029 L -0.7501,0.9754 L -0.7361,0.9495 L -0.7201,0.9254 L -0.7024,0.9031 L -0.6830,0.8828 L -0.6622,0.8645 L -0.6399,0.8484 L -0.6165,0.8346 L -0.5919,0.8230 L -0.5665,0.8139 L -0.5401,0.8071 L -0.5131,0.8027 L -0.4853,0.8008 L -0.4569,0.8015 L -0.4279,0.8047 L -0.3981,0.8107 L -0.3673,0.8195 L -0.3351,0.8314 L -0.3004,0.8471 L -0.2607,0.8682 L -0.1693,0.9226 L -0.1304,0.9440 L -0.0998,0.9583 L -0.0727,0.9683 L -0.0476,0.9750 L -0.0236,0.9789 L 0.0000,0.9802 Z"/>
        <g id="arrows16">
          <use xlink:href="#arrow1" transform="translate(-0.0002,0.9777) rotate(-3.52) scale(2.0)"/>
          <use xlink:href="#arrow1" transform="translate(0.0000,1.7076) rotate(-179.56) scale(2.0)"/>
        </g>
      </g>
      <g id="fieldline17">
        <path d="M -0.3719,1.2553 L -0.3916,1.2629 L -0.4125,1.2682 L -0.4343,1.2712 L -0.4566,1.2717 L -0.4791,1.2698 L -0.5015,1.2653 L -0.5236,1.2584 L -0.5449,1.2491 L -0.5652,1.2375 L -0.5842,1.2238 L -0.6018,1.2082 L -0.6176,1.1908 L -0.6314,1.1718 L -0.6431,1.1515 L -0.6526,1.1302 L -0.6597,1.1082 L -0.6643,1.0857 L -0.6665,1.0630 L -0.6662,1.0405 L -0.6634,1.0184 L -0.6582,0.9970 L -0.6508,0.9766 L -0.6411,0.9573 L -0.6295,0.9396 L -0.6159,0.9235 L -0.6007,0.9092 L -0.5840,0.8969 L -0.5661,0.8868 L -0.5471,0.8789 L -0.5273,0.8733 L -0.5068,0.8702 L -0.4860,0.8695 L -0.4649,0.8713 L -0.4439,0.8756 L -0.4232,0.8824 L -0.4028,0.8917 L -0.3832,0.9035 L -0.3644,0.9177 L -0.3467,0.9341 L -0.3304,0.9528 L -0.3157,0.9733 L -0.3030,0.9954 L -0.2925,1.0185 L -0.2844,1.0422 L -0.2790,1.0659 L -0.2761,1.0891 L -0.2758,1.1114 L -0.2780,1.1327 L -0.2824,1.1529 L -0.2891,1.1718 L -0.2980,1.1895 L -0.3090,1.2059 L -0.3219,1.2208 L -0.3368,1.2341 L -0.3536,1.2456 L -0.3719,1.2553 Z"/>
        <g id="arrows17">
          <use xlink:href="#arrow1" transform="translate(-0.3730,1.2524) rotate(160.08) scale(2.0)"/>
        </g>
      </g>
      <g id="fieldline18">
        <path d="M 0.3719,1.2553 L 0.3536,1.2456 L 0.3368,1.2341 L 0.3219,1.2208 L 0.3090,1.2059 L 0.2980,1.1895 L 0.2891,1.1718 L 0.2824,1.1529 L 0.2780,1.1327 L 0.2758,1.1114 L 0.2761,1.0891 L 0.2790,1.0659 L 0.2844,1.0422 L 0.2925,1.0185 L 0.3030,0.9954 L 0.3157,0.9733 L 0.3304,0.9527 L 0.3467,0.9341 L 0.3644,0.9176 L 0.3832,0.9035 L 0.4028,0.8917 L 0.4232,0.8824 L 0.4439,0.8756 L 0.4649,0.8713 L 0.4860,0.8695 L 0.5068,0.8702 L 0.5273,0.8733 L 0.5471,0.8789 L 0.5661,0.8868 L 0.5840,0.8969 L 0.6007,0.9092 L 0.6159,0.9235 L 0.6295,0.9396 L 0.6411,0.9573 L 0.6508,0.9766 L 0.6582,0.9970 L 0.6634,1.0184 L 0.6662,1.0405 L 0.6665,1.0630 L 0.6643,1.0857 L 0.6597,1.1082 L 0.6526,1.1302 L 0.6431,1.1515 L 0.6314,1.1718 L 0.6176,1.1908 L 0.6018,1.2082 L 0.5842,1.2238 L 0.5652,1.2375 L 0.5449,1.2491 L 0.5236,1.2584 L 0.5015,1.2653 L 0.4791,1.2698 L 0.4566,1.2717 L 0.4343,1.2712 L 0.4125,1.2682 L 0.3916,1.2629 L 0.3719,1.2553 Z"/>
        <g id="arrows18">
          <use xlink:href="#arrow1" transform="translate(0.3735,1.2525) rotate(-150.76) scale(2.0)"/>
        </g>
      </g>
    </g>
    <g id="symbols">
      <g id="current_out1" transform="translate(-0.5,1.0) scale(0.01,0.01)">
        <circle style="fill:#b0b0b0; stroke:none" cx="0" cy="0" r="14"/>
        <circle cx="0" cy="0" r="14" style="fill:url(#white_spot); stroke:#000000; stroke-width:2"/>
        <circle cx="0" cy="0" r="4"/>
      </g>
      <g id="current_in2" transform="translate(-0.5,-1.0) scale(0.01,0.01)">
        <circle style="fill:#b0b0b0; stroke:none" cx="0" cy="0" r="14"/>
        <circle cx="0" cy="0" r="14" style="fill:url(#white_spot); stroke:#000000; stroke-width:2"/>
        <path d="M 8.6,-11.0 L 11.0,-8.6 L 2.6,0 L 11.0,8.6 L 8.6,11.0 0,2.6 L -8.6,11.0 L -11.0,8.6 L -2.6,0 L -11.0,-8.6 L -8.6,-11.0 L 0,-2.6 L 8.6,-11.0 Z" style="fill:#000000; stroke:none"/>
      </g>
      <g id="current_out3" transform="translate(0.5,1.0) scale(0.01,0.01)">
        <circle style="fill:#b0b0b0; stroke:none" cx="0" cy="0" r="14"/>
        <circle cx="0" cy="0" r="14" style="fill:url(#white_spot); stroke:#000000; stroke-width:2"/>
        <circle cx="0" cy="0" r="4"/>
      </g>
      <g id="current_in4" transform="translate(0.5,-1.0) scale(0.01,0.01)">
        <circle style="fill:#b0b0b0; stroke:none" cx="0" cy="0" r="14"/>
        <circle cx="0" cy="0" r="14" style="fill:url(#white_spot); stroke:#000000; stroke-width:2"/>
        <path d="M 8.6,-11.0 L 11.0,-8.6 L 2.6,0 L 11.0,8.6 L 8.6,11.0 0,2.6 L -8.6,11.0 L -11.0,8.6 L -2.6,0 L -11.0,-8.6 L -8.6,-11.0 L 0,-2.6 L 8.6,-11.0 Z" style="fill:#000000; stroke:none"/>
      </g>
    </g>
  </g>
</svg>
